<?xml version="1.0" standalone="no"?>
<!DOCTYPE svg PUBLIC "-//W3C//DTD SVG 20010904//EN"
 "http://www.w3.org/TR/2001/REC-SVG-20010904/DTD/svg10.dtd">
<svg version="1.0" xmlns="http://www.w3.org/2000/svg"
 width="387.000000pt" height="386.000000pt" viewBox="0 0 387.000000 386.000000"
 preserveAspectRatio="xMidYMid meet">

<g transform="translate(0.000000,386.000000) scale(0.100000,-0.100000)"
fill="#000000" stroke="none">
<path d="M1760 3823 c-684 -107 -1141 -673 -1071 -1325 32 -299 141 -521 376
-768 50 -52 101 -111 113 -131 31 -52 60 -139 68 -208 l6 -59 -30 -7 c-39 -8
-79 -45 -88 -81 -8 -32 111 -825 133 -889 26 -75 98 -132 212 -170 30 -10 78
-36 106 -59 192 -157 548 -149 726 15 23 21 60 44 81 50 107 28 187 84 214
148 8 20 44 225 80 456 69 450 69 458 21 503 -12 11 -34 25 -49 31 -32 12 -34
29 -17 113 22 109 71 188 195 319 134 142 179 204 245 343 153 322 149 726
-12 1049 -174 347 -517 600 -899 662 -87 14 -342 19 -410 8z m379 -128 c401
-65 751 -356 879 -730 55 -163 68 -388 32 -566 -45 -220 -134 -379 -325 -579
-141 -148 -195 -251 -213 -407 l-7 -67 -60 -18 c-69 -20 -215 -51 -219 -46 -2
2 57 314 130 693 113 581 132 694 123 718 -17 41 -47 43 -118 8 -33 -17 -86
-41 -117 -52 -61 -23 -77 -47 -62 -92 14 -38 48 -44 108 -19 34 14 50 17 50 9
-1 -7 -56 -298 -124 -647 l-122 -635 -156 -3 -156 -2 -36 187 c-20 104 -75
392 -123 640 -48 249 -84 455 -82 458 3 2 31 -4 62 -15 198 -70 365 -42 488
80 200 198 60 536 -214 518 -115 -7 -227 -80 -268 -174 -29 -65 -35 -128 -15
-159 31 -47 106 -23 106 34 0 41 41 111 83 145 34 27 46 31 100 31 109 -1 168
-53 175 -156 6 -77 -23 -138 -87 -184 -105 -77 -226 -69 -434 28 -84 39 -90
40 -115 26 -15 -8 -28 -23 -30 -33 -2 -10 56 -328 129 -707 73 -379 130 -691
127 -694 -6 -6 -150 24 -228 47 l-45 14 -12 74 c-28 172 -83 271 -239 432
-194 200 -291 405 -314 657 -18 209 15 394 104 576 133 271 358 469 646 568
162 56 392 72 579 42z m372 -2574 c22 -18 22 -20 7 -43 -18 -27 -97 -51 -278
-84 -116 -21 -412 -30 -536 -15 -201 24 -362 66 -371 97 -2 6 5 21 15 34 l18
23 110 -26 c141 -33 165 -36 314 -46 204 -13 439 11 625 63 67 19 69 19 96 -3z
m-36 -311 c21 -8 26 -16 23 -37 -4 -37 -27 -47 -178 -77 -260 -53 -542 -55
-782 -6 -148 30 -172 40 -176 71 -5 45 18 54 95 35 297 -72 611 -72 894 -2 52
13 95 24 96 25 1 1 14 -4 28 -9z m-31 -326 c22 -8 21 -61 -1 -72 -19 -10 -122
-33 -243 -54 -47 -8 -156 -13 -290 -13 -179 1 -235 5 -333 23 -150 28 -190 44
-185 73 6 42 28 44 165 18 115 -22 153 -24 368 -23 217 1 251 4 350 26 121 28
146 31 169 22z"/>
<path d="M216 3534 c-19 -19 -21 -54 -3 -77 16 -22 319 -147 355 -147 51 0 78
53 48 92 -17 23 -320 148 -357 148 -15 0 -35 -7 -43 -16z"/>
<path d="M3445 3454 c-88 -37 -168 -73 -177 -82 -10 -8 -18 -26 -18 -39 0 -25
32 -63 53 -63 17 0 325 126 354 145 43 29 19 106 -33 105 -10 -1 -91 -30 -179
-66z"/>
<path d="M46 2709 c-30 -23 -33 -45 -10 -77 15 -21 20 -22 209 -22 193 0 195
0 210 24 19 28 7 69 -24 85 -12 7 -89 11 -189 11 -156 0 -171 -2 -196 -21z"/>
<path d="M3430 2717 c-28 -14 -38 -54 -20 -87 10 -19 19 -20 215 -20 199 0
204 0 219 22 22 31 20 45 -9 73 -24 25 -26 25 -202 25 -123 0 -186 -4 -203
-13z"/>
<path d="M3282 2074 c-13 -9 -22 -25 -22 -42 0 -32 8 -45 36 -60 47 -25 300
-112 325 -112 50 0 76 53 47 93 -12 16 -323 137 -351 137 -7 0 -23 -7 -35 -16z"/>
<path d="M376 1990 c-87 -32 -163 -65 -167 -72 -15 -23 -10 -57 11 -78 11 -11
24 -20 29 -20 17 0 345 121 358 132 18 15 16 63 -3 82 -25 25 -59 19 -228 -44z"/>
</g>
</svg>
