<?xml version="1.0" standalone="no"?>
<!DOCTYPE svg PUBLIC "-//W3C//DTD SVG 20010904//EN"
 "http://www.w3.org/TR/2001/REC-SVG-20010904/DTD/svg10.dtd">
<svg version="1.0" xmlns="http://www.w3.org/2000/svg"
 width="508.000000pt" height="119.000000pt" viewBox="0 0 508.000000 119.000000"
 preserveAspectRatio="xMidYMid meet">

<g transform="translate(0.000000,119.000000) scale(0.100000,-0.100000)"
fill="#000000" stroke="none">
<path d="M538 1160 c-116 -20 -237 -108 -278 -202 -62 -144 -37 -297 66 -408
66 -72 82 -120 47 -145 -16 -12 -16 -20 1 -131 24 -167 30 -182 80 -205 22
-11 54 -27 70 -36 37 -20 112 -20 156 1 68 32 106 55 117 68 14 17 55 272 47
292 -3 9 -13 16 -21 16 -12 0 -14 7 -8 28 8 33 27 64 82 131 54 66 83 144 83
224 0 186 -122 332 -305 366 -65 12 -69 12 -137 1z m207 -64 c120 -55 187
-150 193 -276 5 -96 -19 -164 -87 -244 -49 -57 -64 -85 -75 -137 -5 -21 -13
-28 -43 -32 -20 -4 -38 -5 -39 -4 -1 1 15 92 37 202 21 110 39 206 39 213 0
16 -20 15 -63 -3 -26 -11 -35 -19 -30 -31 3 -9 13 -14 24 -11 11 3 19 2 19 -1
0 -4 -16 -92 -36 -195 l-36 -188 -47 3 -46 3 -36 190 c-20 105 -36 191 -35
193 2 1 17 -3 35 -9 62 -22 144 16 156 71 9 41 -22 103 -55 111 -57 13 -120
-25 -120 -73 0 -37 24 -37 40 1 15 37 34 45 68 28 35 -16 40 -52 11 -83 -27
-28 -57 -30 -121 -7 -26 9 -51 14 -55 10 -3 -4 11 -101 33 -215 23 -114 40
-208 38 -210 -1 -2 -19 1 -41 7 -35 9 -40 15 -50 54 -7 26 -32 69 -61 103 -61
74 -80 110 -93 180 -30 162 83 332 248 374 61 15 167 4 228 -24z m-150 -761
c50 1 111 5 138 9 31 6 47 5 47 -2 0 -34 -247 -46 -342 -16 -34 10 -8 25 30
17 20 -4 78 -8 127 -8z m175 -94 c0 -12 -105 -31 -170 -31 -69 0 -170 19 -170
32 0 6 20 7 53 2 63 -9 189 -7 237 5 36 8 50 6 50 -8z m-183 -101 c34 0 85 5
113 11 52 11 72 7 53 -12 -24 -24 -265 -27 -303 -4 -22 14 2 22 37 14 21 -5
66 -9 100 -9z"/>
<path d="M80 1066 c0 -14 86 -56 114 -56 34 0 13 28 -35 49 -60 24 -79 26 -79
7z"/>
<path d="M1043 1050 c-44 -20 -58 -50 -24 -50 31 0 111 40 111 55 0 20 -35 18
-87 -5z"/>
<path d="M1440 570 l0 -340 50 0 50 0 0 98 c1 88 11 132 32 132 3 0 15 -28 28
-62 12 -35 31 -87 42 -115 l19 -53 45 0 c24 0 44 4 44 10 0 5 -23 71 -51 145
-28 75 -48 142 -46 150 3 7 28 49 55 93 28 44 48 83 44 86 -3 3 -24 6 -48 6
l-42 0 -59 -95 -58 -95 -3 190 -2 190 -50 0 -50 0 0 -340z"/>
<path d="M1800 570 l0 -340 45 0 c35 0 45 4 45 17 0 14 2 14 20 -2 22 -20 85
-24 117 -7 11 6 29 28 39 49 16 32 19 61 19 193 0 165 -10 206 -54 230 -28 15
-84 12 -107 -5 -10 -8 -22 -15 -26 -15 -5 0 -8 50 -8 110 l0 110 -45 0 -45 0
0 -340z m173 65 c31 -30 34 -287 5 -322 -13 -16 -42 -17 -69 -3 -17 10 -19 23
-19 165 l0 153 28 10 c37 14 39 14 55 -3z"/>
<path d="M2170 570 l0 -340 45 0 45 0 2 191 3 192 28 21 c21 16 32 18 45 10
15 -10 17 -35 20 -213 l2 -202 48 3 47 3 0 215 c0 190 -2 219 -18 243 -22 34
-74 37 -130 7 -20 -11 -39 -20 -42 -20 -3 0 -5 52 -5 115 l0 115 -45 0 -45 0
0 -340z"/>
<path d="M4282 833 l3 -48 48 -3 47 -3 0 50 0 51 -51 0 -50 0 3 -47z"/>
<path d="M4047 854 c-4 -4 -7 -36 -7 -70 0 -57 -2 -63 -22 -66 -18 -2 -24 -11
-26 -35 -3 -29 0 -33 22 -33 l24 0 4 -179 c3 -163 5 -182 24 -207 24 -32 65
-47 112 -39 29 5 32 9 32 40 0 31 -3 34 -32 37 l-33 3 -3 172 -2 172 37 3 c35
3 38 6 38 33 0 27 -3 30 -37 33 l-37 3 -3 67 -3 67 -40 3 c-23 2 -44 0 -48 -4z"/>
<path d="M30 815 c0 -12 14 -15 65 -15 51 0 65 3 65 15 0 12 -14 15 -65 15
-51 0 -65 -3 -65 -15z"/>
<path d="M1042 818 c3 -8 29 -14 71 -16 55 -2 67 0 67 13 0 12 -14 15 -71 15
-52 0 -70 -3 -67 -12z"/>
<path d="M2771 694 c-42 -35 -51 -77 -50 -229 1 -144 11 -188 52 -219 30 -22
128 -27 164 -7 34 18 53 63 53 126 l0 55 -40 0 -40 0 0 -41 c0 -56 -14 -79
-49 -79 -41 0 -51 37 -51 179 0 128 11 164 50 169 31 5 50 -21 50 -70 0 -38 0
-38 40 -38 l40 0 0 50 c0 94 -37 130 -134 130 -44 0 -60 -5 -85 -26z"/>
<path d="M3077 713 c-4 -3 -7 -114 -7 -245 l0 -238 45 0 45 0 0 174 c0 156 2
176 19 197 15 18 28 23 60 23 l41 -1 0 48 c0 45 -2 49 -25 49 -13 0 -40 -14
-60 -31 l-35 -31 0 31 c0 29 -2 31 -38 31 -21 0 -42 -3 -45 -7z"/>
<path d="M3384 701 c-48 -29 -59 -74 -59 -236 1 -153 10 -188 62 -222 32 -21
120 -23 156 -4 27 14 52 64 62 124 l6 37 -51 0 -50 0 0 -34 c0 -52 -9 -66 -41
-66 -38 0 -49 24 -49 104 l0 66 96 0 97 0 -7 78 c-8 88 -30 141 -66 159 -38
19 -120 16 -156 -6z m114 -63 c7 -7 12 -36 12 -65 l0 -53 -45 0 -45 0 0 46 c0
25 5 54 10 65 12 21 50 25 68 7z"/>
<path d="M3731 707 c-35 -18 -60 -56 -67 -104 l-7 -43 46 0 c43 0 46 2 52 33
9 40 22 57 46 57 25 0 49 -38 49 -77 0 -30 -5 -35 -72 -70 -94 -50 -113 -76
-113 -159 0 -56 3 -67 27 -90 38 -38 98 -37 139 2 l29 28 0 -27 c0 -25 3 -27
43 -27 l42 0 -3 197 c-4 216 -13 256 -62 280 -32 16 -118 16 -149 0z m119
-299 c0 -68 -17 -98 -56 -98 -56 0 -53 83 5 130 19 17 39 30 43 30 5 0 8 -28
8 -62z"/>
<path d="M4287 714 c-4 -4 -7 -115 -7 -246 l0 -238 50 0 50 0 -2 243 -3 242
-40 3 c-23 2 -44 0 -48 -4z"/>
<path d="M4440 703 c0 -16 71 -389 85 -451 5 -21 10 -23 63 -20 l57 3 42 220
c54 282 54 267 1 263 l-43 -3 -21 -130 c-12 -71 -25 -152 -29 -180 l-8 -50
-19 115 c-10 63 -23 145 -29 183 l-11 67 -44 0 c-35 0 -44 -3 -44 -17z"/>
<path d="M4851 707 c-13 -6 -34 -25 -45 -40 -19 -26 -21 -42 -21 -190 0 -145
2 -166 20 -197 32 -54 130 -73 198 -38 24 12 57 84 57 126 0 31 -1 32 -45 32
-44 0 -45 -1 -45 -31 0 -46 -16 -69 -49 -69 -36 0 -51 32 -51 110 l0 60 96 0
97 0 -5 83 c-5 90 -24 138 -65 156 -32 15 -112 14 -142 -2z m109 -83 c6 -14
10 -43 10 -65 l0 -39 -51 0 -52 0 5 50 c6 58 21 80 54 80 17 0 28 -8 34 -26z"/>
<path d="M1000 626 c0 -31 117 -66 127 -38 5 13 -46 38 -98 49 -23 4 -29 2
-29 -11z"/>
<path d="M130 611 c-40 -17 -68 -51 -41 -51 26 0 122 43 118 53 -6 18 -28 18
-77 -2z"/>
</g>
</svg>
