<?xml version="1.0" standalone="no"?>
<!DOCTYPE svg PUBLIC "-//W3C//DTD SVG 20010904//EN"
 "http://www.w3.org/TR/2001/REC-SVG-20010904/DTD/svg10.dtd">
<svg version="1.0" xmlns="http://www.w3.org/2000/svg"
 width="506.000000pt" height="119.000000pt" viewBox="0 0 506.000000 119.000000"
 preserveAspectRatio="xMidYMid meet">

<g transform="translate(0.000000,119.000000) scale(0.100000,-0.100000)"
fill="#000000" stroke="none">
<path d="M4369 1155 c-277 -70 -376 -397 -183 -605 66 -72 82 -120 47 -145
-16 -12 -16 -20 1 -131 24 -164 31 -182 75 -203 20 -9 49 -25 65 -36 42 -28
130 -27 176 2 19 12 49 28 65 36 17 8 35 21 42 29 10 11 53 238 53 277 0 6 -9
18 -19 28 -17 16 -18 22 -6 56 7 21 33 59 57 85 74 79 93 130 93 247 0 93 -2
105 -33 167 -77 157 -258 238 -433 193z m238 -60 c72 -32 144 -102 174 -171
13 -29 20 -67 21 -113 1 -100 -20 -155 -88 -233 -49 -55 -67 -86 -73 -126 -6
-32 -11 -37 -44 -45 -21 -5 -40 -8 -41 -6 -2 2 14 98 36 212 22 114 38 211 34
214 -3 3 -24 1 -46 -6 -30 -9 -40 -17 -40 -33 0 -15 5 -19 20 -15 12 3 20 0
20 -6 0 -7 -16 -92 -35 -191 -19 -98 -35 -180 -35 -183 0 -2 -21 -3 -47 -1
l-47 3 -37 190 c-20 105 -35 191 -34 193 1 1 16 -3 34 -9 39 -14 83 -6 121 21
81 58 19 192 -74 160 -44 -15 -66 -39 -66 -72 0 -37 24 -37 40 2 15 37 44 47
75 26 31 -20 32 -52 3 -83 -26 -27 -54 -29 -119 -6 -26 10 -51 14 -55 10 -4
-4 11 -100 33 -214 22 -115 39 -209 38 -211 -2 -2 -20 1 -42 7 -35 9 -40 15
-50 54 -7 26 -32 69 -61 103 -88 105 -112 182 -91 292 40 215 271 330 476 237z
m-157 -760 c52 0 116 4 143 9 31 5 47 5 47 -2 0 -26 -157 -45 -252 -32 -91 13
-110 19 -102 31 3 6 18 7 37 2 18 -4 75 -8 127 -8z m180 -95 c0 -13 -94 -30
-170 -30 -77 0 -170 17 -170 31 0 11 0 11 96 -1 60 -8 97 -7 154 3 76 13 90
13 90 -3z m-15 -89 c8 -14 -6 -20 -84 -31 -48 -7 -94 -7 -143 0 -117 17 -106
31 18 24 60 -3 127 -1 149 4 54 13 53 13 60 3z"/>
<path d="M3940 1066 c0 -16 104 -61 119 -51 20 12 11 23 -38 44 -58 24 -81 27
-81 7z"/>
<path d="M4903 1050 c-50 -22 -61 -56 -15 -47 49 10 102 37 102 52 0 20 -35
18 -87 -5z"/>
<path d="M20 570 l0 -340 50 0 50 0 0 98 c1 88 11 132 32 132 3 0 15 -28 28
-62 12 -35 31 -87 42 -115 l19 -53 45 0 c24 0 44 4 44 10 0 5 -22 70 -50 143
-28 73 -50 137 -50 141 0 4 25 48 55 97 30 49 55 91 55 94 0 3 -22 5 -49 5
l-49 0 -59 -95 -58 -95 -3 190 -2 190 -50 0 -50 0 0 -340z"/>
<path d="M380 570 l0 -340 45 0 c32 0 45 4 45 14 0 10 8 9 38 -6 34 -16 43
-17 78 -6 31 10 44 22 62 58 20 39 22 59 22 180 0 153 -10 200 -47 230 -30 24
-90 27 -119 5 -10 -8 -22 -15 -26 -15 -5 0 -8 50 -8 110 l0 110 -45 0 -45 0 0
-340z m176 66 c17 -13 19 -29 22 -148 3 -144 -6 -180 -45 -186 -12 -2 -31 2
-43 8 -20 10 -20 18 -18 163 3 150 3 152 28 164 31 16 32 16 56 -1z"/>
<path d="M750 570 l0 -340 45 0 45 0 2 191 3 192 28 21 c21 16 32 18 45 10 15
-10 17 -35 20 -213 l2 -201 51 0 50 0 -3 218 c-4 257 -8 272 -81 272 -25 0
-54 -8 -72 -20 -16 -11 -33 -20 -37 -20 -5 0 -8 52 -8 115 l0 115 -45 0 -45 0
0 -340z"/>
<path d="M2870 830 l0 -50 45 0 45 0 0 50 0 50 -45 0 -45 0 0 -50z"/>
<path d="M2630 791 c0 -69 -1 -71 -25 -71 -22 0 -25 -4 -25 -35 0 -30 3 -35
24 -35 l25 0 3 -184 c3 -177 4 -185 26 -209 26 -28 77 -41 116 -31 21 5 26 12
26 39 0 31 -3 34 -32 37 l-33 3 -3 173 -2 172 35 0 c33 0 35 2 35 35 0 33 -2
35 -35 35 l-34 0 -3 68 -3 67 -47 3 -48 3 0 -70z"/>
<path d="M3890 815 c0 -12 14 -15 65 -15 51 0 65 3 65 15 0 12 -14 15 -65 15
-51 0 -65 -3 -65 -15z"/>
<path d="M4910 815 c0 -12 14 -15 65 -15 51 0 65 3 65 15 0 12 -14 15 -65 15
-51 0 -65 -3 -65 -15z"/>
<path d="M1351 695 c-42 -36 -55 -102 -49 -256 4 -139 18 -178 72 -201 45 -19
123 -14 155 10 31 22 53 82 49 132 -3 34 -5 35 -45 38 l-43 3 0 -48 c0 -54
-12 -73 -46 -73 -43 0 -49 23 -49 175 1 152 7 175 49 175 33 0 46 -19 46 -67
l0 -43 45 0 c44 0 45 1 45 33 0 53 -19 105 -47 127 -40 31 -141 29 -182 -5z"/>
<path d="M1654 707 c-2 -7 -3 -116 -2 -242 l3 -230 48 -3 47 -3 0 180 0 180
27 21 c21 16 35 20 60 15 l33 -6 0 51 c0 49 0 50 -31 50 -20 0 -40 -10 -60
-29 l-29 -29 0 29 c0 28 -2 29 -45 29 -28 0 -48 -5 -51 -13z"/>
<path d="M1955 687 c-41 -41 -48 -82 -44 -249 3 -101 8 -129 24 -158 34 -57
138 -74 202 -34 28 18 53 75 53 120 0 34 -1 34 -45 34 -44 0 -45 -1 -45 -31 0
-46 -16 -69 -49 -69 -35 0 -51 36 -51 116 l0 54 96 0 97 0 -5 83 c-8 133 -37
167 -144 167 -50 0 -59 -3 -89 -33z m135 -56 c5 -11 10 -40 10 -66 l0 -46 -47
3 -48 3 2 48 c1 26 7 54 13 62 18 21 57 18 70 -4z"/>
<path d="M2304 701 c-33 -20 -54 -64 -54 -112 0 -28 2 -29 45 -29 42 0 45 2
45 26 0 38 18 64 43 64 34 0 47 -19 47 -70 l0 -46 -53 -22 c-118 -49 -167
-160 -110 -249 31 -47 119 -48 154 -2 l16 22 7 -27 c6 -23 11 -26 47 -26 l40
0 -3 203 c-4 220 -10 247 -59 273 -41 20 -127 18 -165 -5z m110 -372 c-33 -37
-74 -17 -74 35 1 35 11 51 55 85 l30 23 3 -62 c2 -48 -1 -67 -14 -81z"/>
<path d="M2870 475 l0 -245 45 0 45 0 0 245 0 245 -45 0 -45 0 0 -245z"/>
<path d="M3028 715 c-2 -3 16 -112 41 -242 l46 -238 57 -3 c53 -3 58 -1 63 20
10 43 85 443 85 455 0 9 -15 13 -44 13 -51 0 -41 25 -78 -215 l-23 -150 -11
65 c-6 36 -20 118 -29 183 l-18 117 -42 0 c-23 0 -44 -2 -47 -5z"/>
<path d="M3429 705 c-46 -25 -59 -78 -59 -236 0 -202 23 -242 138 -242 92 0
123 28 137 126 l7 47 -44 0 -45 0 -9 -47 c-8 -43 -12 -48 -39 -51 -42 -5 -55
19 -55 100 l0 68 96 0 97 0 -6 79 c-6 90 -27 143 -63 160 -34 15 -123 13 -155
-4z m112 -71 c7 -9 13 -37 13 -62 l1 -47 -47 -3 -48 -3 0 40 c0 59 15 91 44
91 13 0 29 -7 37 -16z"/>
<path d="M4864 629 c-8 -14 2 -23 54 -42 53 -21 72 -21 72 -2 0 9 -20 24 -46
35 -52 23 -70 25 -80 9z"/>
<path d="M3990 611 c-40 -17 -68 -51 -41 -51 26 0 122 43 118 53 -6 18 -28 18
-77 -2z"/>
</g>
</svg>
