<?xml version="1.0" standalone="no"?>
<!DOCTYPE svg PUBLIC "-//W3C//DTD SVG 20010904//EN"
 "http://www.w3.org/TR/2001/REC-SVG-20010904/DTD/svg10.dtd">
<svg version="1.0" xmlns="http://www.w3.org/2000/svg"
 width="500.000000pt" height="127.000000pt" viewBox="0 0 500.000000 127.000000"
 preserveAspectRatio="xMidYMid meet">

<g transform="translate(0.000000,127.000000) scale(0.100000,-0.100000)"
fill="#000000" stroke="none">
<path d="M1780 1243 c-94 -10 -207 -68 -269 -138 -19 -22 -46 -64 -60 -95 -22
-47 -26 -68 -26 -150 1 -113 24 -184 84 -251 55 -63 91 -119 91 -141 0 -11 -9
-27 -20 -36 l-21 -17 22 -140 c12 -77 28 -150 36 -163 8 -13 33 -32 56 -43 23
-11 53 -26 67 -34 37 -22 128 -19 170 5 19 11 54 29 76 39 23 11 44 24 48 29
8 13 46 254 46 291 0 17 -7 34 -16 39 -29 16 -9 72 47 138 143 166 151 366 22
529 -73 93 -222 151 -353 138z m200 -74 c104 -48 182 -149 199 -261 18 -110
-16 -210 -106 -311 -37 -41 -55 -71 -59 -97 -8 -51 -14 -57 -57 -65 -26 -5
-37 -4 -37 5 0 7 18 107 41 223 28 145 37 213 30 220 -15 15 -93 -22 -88 -42
2 -10 11 -15 26 -13 20 2 22 -1 18 -20 -3 -13 -20 -97 -37 -188 -41 -219 -33
-200 -90 -200 l-48 0 -39 203 c-22 111 -38 203 -37 205 1 2 21 -2 44 -8 36
-10 50 -9 87 5 53 20 73 47 73 98 0 29 -7 46 -29 68 -16 16 -39 29 -51 29 -33
0 -87 -26 -99 -48 -11 -20 -15 -72 -7 -72 18 0 36 15 36 30 0 9 9 25 20 35 24
21 65 13 84 -17 15 -25 -4 -70 -38 -87 -25 -11 -36 -11 -92 8 -36 12 -67 21
-69 21 -11 0 -3 -54 35 -249 22 -113 38 -207 35 -209 -2 -2 -20 0 -40 4 -32 8
-38 15 -54 60 -10 30 -40 78 -71 115 -78 93 -95 136 -95 239 0 73 4 94 29 148
35 77 113 152 189 181 76 31 220 25 297 -10z m21 -804 c0 -31 -212 -48 -318
-25 -64 14 -73 36 -10 26 106 -15 166 -16 237 -3 83 16 92 16 91 2z m-196
-110 c44 0 106 4 138 9 38 6 57 5 57 -2 0 -6 -8 -13 -18 -16 -95 -31 -342 -19
-342 16 0 6 15 7 43 1 23 -4 78 -8 122 -8z m5 -100 c47 0 107 4 134 9 39 7 48
6 44 -5 -7 -21 -56 -30 -168 -30 -110 -1 -161 8 -168 30 -3 9 5 10 34 4 22 -4
77 -8 124 -8z"/>
<path d="M1265 1141 c-3 -5 0 -13 7 -18 28 -18 113 -51 120 -47 20 13 4 33
-41 53 -54 23 -77 26 -86 12z"/>
<path d="M2291 1117 c-48 -24 -61 -41 -37 -50 22 -9 126 40 126 58 0 21 -37
18 -89 -8z"/>
<path d="M30 610 l0 -360 50 0 50 0 0 95 c0 68 5 105 16 127 9 17 19 26 24 22
4 -5 27 -62 50 -126 l43 -118 48 0 c27 0 49 3 49 8 0 4 -25 72 -55 152 -30 80
-55 148 -55 152 0 4 25 48 55 98 30 50 55 95 55 100 0 6 -22 10 -49 10 l-48 0
-67 -107 -66 -108 0 208 0 207 -50 0 -50 0 0 -360z"/>
<path d="M410 610 l0 -360 50 0 c36 0 50 4 50 14 0 11 8 9 38 -5 71 -36 139 1
161 86 14 56 14 288 0 339 -16 58 -49 86 -102 86 -24 0 -52 -7 -63 -15 -10 -8
-22 -15 -26 -15 -5 0 -8 52 -8 115 l0 115 -50 0 -50 0 0 -360z m200 54 c13
-34 13 -290 0 -315 -7 -12 -21 -19 -40 -19 -61 0 -60 -3 -60 176 0 179 1 183
63 184 20 0 30 -6 37 -26z"/>
<path d="M810 610 l0 -360 50 0 50 0 0 208 0 209 24 12 c12 7 34 11 47 9 l24
-3 3 -218 2 -217 50 0 50 0 0 231 c0 277 -3 289 -86 289 -28 0 -53 -8 -78 -25
l-36 -24 0 124 0 125 -50 0 -50 0 0 -360z"/>
<path d="M4150 890 l0 -50 50 0 50 0 0 50 0 50 -50 0 -50 0 0 -50z"/>
<path d="M3900 846 c0 -74 0 -75 -27 -78 -23 -2 -29 -8 -31 -35 -3 -31 -1 -33
27 -33 l30 0 3 -199 c3 -193 4 -200 26 -224 26 -28 79 -41 123 -32 25 6 29 11
29 41 0 31 -3 34 -28 34 -49 0 -52 10 -52 202 l0 178 40 0 c39 0 40 1 40 35 0
34 -1 35 -40 35 l-40 0 0 75 0 75 -50 0 -50 0 0 -74z"/>
<path d="M1217 884 c-4 -4 -7 -14 -7 -21 0 -11 15 -13 68 -11 52 2 67 6 67 18
0 11 -15 16 -60 18 -34 2 -64 0 -68 -4z"/>
<path d="M2295 880 c-13 -22 12 -31 76 -28 49 2 64 7 64 18 0 12 -15 16 -67
18 -41 2 -69 -1 -73 -8z"/>
<path d="M2544 751 c-48 -29 -59 -73 -59 -241 0 -158 10 -207 51 -239 33 -26
100 -34 154 -18 56 16 80 54 87 137 l6 60 -45 0 -45 0 -6 -51 c-7 -59 -20 -79
-52 -79 -41 0 -49 24 -53 159 -4 157 4 202 40 215 38 13 56 -6 64 -65 l7 -49
45 0 45 0 -6 60 c-7 67 -29 107 -64 121 -43 16 -135 11 -169 -10z"/>
<path d="M2860 510 l0 -260 50 0 50 0 0 190 c0 179 1 191 21 211 15 15 31 20
62 17 l42 -3 3 53 c3 50 2 52 -23 52 -32 0 -81 -24 -94 -47 -9 -15 -10 -12
-11 15 0 32 0 32 -50 32 l-50 0 0 -260z"/>
<path d="M3194 751 c-50 -31 -59 -67 -59 -246 0 -175 6 -201 58 -239 21 -15
43 -21 86 -21 92 0 137 41 148 134 l6 51 -52 0 -51 0 0 -36 c0 -47 -16 -74
-44 -74 -41 0 -56 29 -56 108 l0 72 100 0 100 0 0 60 c0 94 -17 156 -52 185
-25 21 -40 25 -91 25 -43 0 -71 -6 -93 -19z m120 -67 c11 -10 16 -34 16 -70
l0 -54 -50 0 -50 0 0 48 c0 77 44 117 84 76z"/>
<path d="M3561 757 c-37 -19 -63 -60 -68 -111 l-6 -47 49 3 c46 3 49 5 52 33
6 54 54 84 81 51 6 -7 14 -34 17 -59 l7 -46 -64 -30 c-36 -17 -79 -45 -97 -64
-73 -75 -52 -223 35 -240 37 -7 91 11 103 33 15 28 30 25 30 -5 0 -23 4 -25
45 -25 l45 0 0 185 c0 218 -9 274 -52 310 -25 21 -40 25 -91 25 -34 0 -73 -6
-86 -13z m127 -323 c-3 -60 -6 -69 -31 -88 -38 -28 -61 -13 -65 43 -3 38 1 46
33 77 56 52 66 47 63 -32z"/>
<path d="M4150 510 l0 -260 50 0 50 0 0 260 0 260 -50 0 -50 0 0 -260z"/>
<path d="M4312 758 c3 -7 27 -124 54 -260 l48 -248 61 0 61 0 47 253 c26 138
47 256 47 260 0 4 -21 7 -47 5 l-47 -3 -12 -70 c-6 -38 -20 -124 -29 -190 -10
-66 -20 -115 -22 -108 -2 6 -16 92 -31 190 l-27 178 -54 3 c-41 2 -52 0 -49
-10z"/>
<path d="M4744 751 c-50 -31 -59 -67 -59 -246 0 -175 6 -201 58 -239 21 -15
43 -21 86 -21 92 0 137 41 148 134 l6 51 -52 0 -51 0 0 -36 c0 -47 -16 -74
-44 -74 -41 0 -56 29 -56 108 l0 72 100 0 100 0 0 60 c0 94 -17 156 -52 185
-25 21 -40 25 -91 25 -43 0 -71 -6 -93 -19z m120 -67 c11 -10 16 -34 16 -70
l0 -54 -50 0 -50 0 0 48 c0 77 44 117 84 76z"/>
<path d="M2251 665 c3 -10 24 -25 54 -36 61 -23 75 -24 75 -3 0 16 -49 40
-102 51 -25 5 -29 3 -27 -12z"/>
<path d="M1313 654 c-44 -16 -63 -41 -38 -51 24 -9 119 30 123 50 4 21 -25 22
-85 1z"/>
</g>
</svg>
