<?xml version="1.0" standalone="no"?>
<!DOCTYPE svg PUBLIC "-//W3C//DTD SVG 20010904//EN"
 "http://www.w3.org/TR/2001/REC-SVG-20010904/DTD/svg10.dtd">
<svg version="1.0" xmlns="http://www.w3.org/2000/svg"
 width="483.000000pt" height="280.000000pt" viewBox="0 0 483.000000 280.000000"
 preserveAspectRatio="xMidYMid meet">

<g transform="translate(0.000000,280.000000) scale(0.100000,-0.100000)"
fill="#000000" stroke="none">
<path d="M2335 2769 c-281 -27 -495 -261 -495 -540 0 -134 55 -270 149 -372
32 -34 68 -80 80 -102 27 -51 28 -101 2 -110 -11 -3 -23 -15 -26 -25 -5 -16
30 -283 51 -383 8 -40 49 -84 92 -98 20 -7 51 -22 67 -34 84 -62 221 -58 308
8 18 13 43 28 57 32 40 12 79 44 86 69 3 13 18 104 33 202 29 186 28 214 -8
233 -17 9 -18 16 -10 52 13 57 24 76 79 134 115 123 162 235 163 385 1 153
-49 280 -149 384 -123 127 -286 183 -479 165z m184 -64 c182 -43 333 -186 377
-355 20 -78 15 -199 -11 -275 -23 -65 -74 -145 -135 -210 -55 -57 -89 -124
-90 -172 0 -33 -13 -41 -98 -58 -30 -6 -33 -5 -29 11 3 11 31 153 63 317 41
215 54 301 46 309 -17 17 -127 -33 -127 -58 0 -15 7 -19 33 -19 17 0 32 -2 32
-4 0 -6 -99 -521 -105 -548 -5 -21 -11 -23 -75 -23 -39 0 -70 3 -70 8 0 10
-100 534 -106 554 -4 15 -1 15 42 2 26 -8 61 -14 78 -14 45 1 108 32 140 71
25 30 28 39 24 92 -4 49 -9 63 -36 90 -28 28 -39 32 -86 32 -62 0 -99 -21
-130 -74 -24 -41 -15 -84 16 -79 14 2 24 13 29 32 19 69 87 89 136 40 32 -33
26 -77 -17 -116 -39 -36 -90 -37 -176 -2 -35 14 -68 22 -74 19 -16 -10 -13
-35 45 -330 30 -154 55 -288 55 -298 0 -14 -6 -16 -27 -11 -84 18 -90 23 -102
72 -18 71 -47 120 -111 189 -140 150 -173 356 -85 538 102 214 340 325 574
270z m-289 -1160 c85 -19 227 -19 315 0 89 19 115 19 115 0 0 -29 -198 -60
-325 -51 -78 6 -190 28 -201 39 -9 8 5 27 19 27 7 -1 41 -7 77 -15z m10 -145
c66 -14 235 -11 310 5 87 19 102 19 98 -2 -8 -42 -258 -66 -403 -39 -102 20
-106 21 -99 41 4 9 14 13 28 10 11 -3 41 -9 66 -15z m150 -145 c69 0 153 4
188 9 44 6 62 6 62 -2 0 -28 -119 -52 -256 -52 -79 0 -109 4 -201 25 -13 3
-23 13 -23 21 0 14 7 15 53 8 28 -5 108 -9 177 -9z"/>
<path d="M1630 2634 c-18 -21 -1 -36 79 -68 68 -27 96 -32 105 -17 13 21 -9
40 -79 70 -86 36 -88 36 -105 15z"/>
<path d="M3075 2603 c-71 -29 -88 -43 -79 -66 8 -22 16 -21 104 16 58 25 76
38 78 55 4 29 -24 28 -103 -5z"/>
<path d="M1553 2269 c-8 -8 -9 -18 -2 -31 8 -15 22 -18 87 -18 85 0 106 8 100
36 -3 17 -14 19 -88 22 -56 2 -89 -1 -97 -9z"/>
<path d="M3072 2271 c-8 -4 -12 -17 -10 -27 3 -16 14 -19 78 -22 98 -4 122 2
118 31 -3 20 -9 22 -88 25 -47 1 -91 -2 -98 -7z"/>
<path d="M2996 1981 c-13 -20 9 -41 62 -62 32 -11 72 -23 90 -26 27 -5 32 -3
32 14 0 26 -12 35 -83 61 -63 24 -93 27 -101 13z"/>
<path d="M1713 1952 c-88 -33 -103 -46 -82 -67 14 -14 24 -13 95 13 67 25 79
33 79 52 0 13 -4 25 -10 26 -5 2 -43 -9 -82 -24z"/>
<path d="M20 470 l0 -450 60 0 60 0 0 117 c0 108 2 120 26 161 l27 46 17 -45
c9 -24 36 -97 60 -162 l42 -117 59 0 c32 0 59 4 59 10 0 5 -31 93 -70 195
l-69 186 74 122 74 122 -56 3 c-31 2 -61 1 -67 -1 -7 -3 -45 -59 -86 -126 -41
-66 -78 -121 -82 -121 -5 0 -8 115 -8 255 l0 255 -60 0 -60 0 0 -450z"/>
<path d="M497 914 c-4 -4 -7 -207 -7 -451 l0 -443 65 0 c58 0 65 2 65 20 0 18
2 18 38 -6 29 -21 45 -25 79 -21 58 6 86 27 114 84 22 44 24 63 27 225 4 203
-7 264 -57 312 -44 42 -113 47 -163 12 l-37 -25 -3 147 -3 147 -55 3 c-31 2
-59 0 -63 -4z m240 -371 c16 -23 18 -51 18 -203 0 -152 -2 -180 -18 -203 -19
-30 -49 -35 -92 -15 l-25 11 0 207 c0 205 0 207 23 218 41 20 75 14 94 -15z"/>
<path d="M990 470 l0 -450 60 0 60 0 0 258 0 258 29 17 c39 23 78 22 91 -2 6
-12 10 -118 10 -275 l0 -256 60 0 60 0 0 285 c0 236 -3 291 -15 315 -19 36
-43 50 -87 50 -35 0 -111 -31 -122 -49 -20 -32 -26 1 -26 144 l0 155 -60 0
-60 0 0 -450z"/>
<path d="M3782 818 l3 -63 63 -3 62 -3 0 66 0 65 -65 0 -66 0 3 -62z"/>
<path d="M3470 755 l0 -95 -35 0 c-34 0 -35 -1 -35 -40 0 -39 1 -40 35 -40
l35 0 0 -232 c0 -202 2 -238 18 -268 21 -42 72 -70 129 -70 65 0 73 6 73 56 0
43 0 44 -34 44 -64 0 -66 6 -66 251 l0 219 50 0 50 0 0 40 0 40 -50 0 -50 0 0
95 0 95 -60 0 -60 0 0 -95z"/>
<path d="M1815 656 c-40 -18 -70 -52 -86 -101 -19 -55 -19 -362 0 -428 27 -92
117 -134 231 -107 82 20 113 73 114 195 l1 50 -52 3 -51 3 -7 -65 c-4 -36 -13
-73 -19 -82 -18 -24 -66 -21 -88 6 -16 20 -18 44 -18 216 0 181 1 195 20 214
11 11 29 20 40 20 27 0 60 -35 60 -64 0 -13 3 -38 6 -55 6 -30 8 -31 62 -31
l55 0 -7 66 c-10 97 -27 131 -78 154 -50 23 -139 26 -183 6z"/>
<path d="M2390 659 c-14 -6 -40 -24 -57 -42 l-33 -31 0 37 0 37 -60 0 -60 0 0
-320 0 -320 60 0 60 0 0 233 0 233 29 28 c23 22 39 28 70 28 23 0 45 -4 51 -7
6 -4 10 20 10 64 0 67 -1 71 -22 70 -13 0 -34 -5 -48 -10z"/>
<path d="M2625 656 c-49 -18 -81 -54 -94 -104 -17 -63 -23 -243 -12 -336 18
-157 60 -201 186 -201 120 1 165 46 181 178 l7 57 -60 0 -60 0 -6 -57 c-7 -64
-23 -86 -63 -86 -49 1 -64 32 -64 139 l0 94 127 0 126 0 -6 101 c-7 113 -30
175 -74 204 -36 24 -137 29 -188 11z m115 -94 c17 -14 23 -32 27 -85 l6 -67
-67 0 -66 0 0 59 c0 93 47 136 100 93z"/>
<path d="M3075 659 c-59 -17 -101 -74 -111 -153 l-6 -44 60 -4 61 -3 6 48 c9
59 41 87 81 69 29 -14 44 -49 44 -105 l0 -42 -93 -45 c-112 -55 -148 -97 -155
-184 -6 -71 2 -98 39 -141 55 -62 147 -56 194 13 25 36 25 36 25 10 0 -50 8
-58 64 -58 l53 0 -4 208 c-5 296 -7 323 -28 366 -31 64 -134 93 -230 65z m135
-404 c0 -79 -2 -86 -27 -110 -34 -31 -67 -32 -87 -3 -36 51 -10 119 65 170 23
15 44 28 46 28 1 0 3 -38 3 -85z"/>
<path d="M4554 660 c-49 -15 -90 -70 -104 -136 -17 -83 -9 -368 13 -415 24
-53 68 -86 126 -94 140 -19 221 51 221 193 l0 42 -60 0 -60 0 0 -44 c0 -83
-30 -117 -86 -96 -30 12 -46 70 -42 158 l3 67 124 3 124 3 -5 102 c-7 165 -44
216 -159 223 -35 2 -78 -1 -95 -6z m111 -94 c15 -11 20 -30 23 -85 l4 -71 -66
0 -66 0 0 33 c1 108 49 164 105 123z"/>
<path d="M3782 343 l3 -318 63 -3 62 -3 0 321 0 320 -65 0 -65 0 2 -317z"/>
<path d="M4042 363 c31 -164 60 -308 63 -321 5 -20 11 -22 80 -22 41 0 75 2
75 4 0 5 108 571 116 609 l6 27 -60 0 c-71 0 -59 30 -103 -262 -18 -120 -34
-216 -36 -215 -2 3 -73 457 -73 471 0 3 -28 6 -63 6 l-63 0 58 -297z"/>
</g>
</svg>
